<svg width="550" height="151" viewBox="0 0 550 151" fill="none" xmlns="http://www.w3.org/2000/svg">
<circle cx="75.5" cy="75.5" r="75.5" fill="black"/>
<path d="M503.509 143.653C493.145 143.653 484.225 141.554 476.747 137.356C469.313 133.114 463.584 127.123 459.561 119.383C455.538 111.599 453.526 102.394 453.526 91.7674C453.526 81.4035 455.538 72.3077 459.561 64.4801C463.584 56.6525 469.247 50.5522 476.55 46.1792C483.897 41.8063 492.511 39.6198 502.394 39.6198C509.041 39.6198 515.229 40.6912 520.958 42.8339C526.73 44.9329 531.759 48.1033 536.044 52.3451C540.374 56.5869 543.741 61.9219 546.146 68.3502C548.551 74.7347 549.754 82.2125 549.754 90.7835V98.4581H464.677V81.1411H523.45C523.45 77.118 522.576 73.554 520.826 70.4492C519.077 67.3444 516.65 64.9174 513.545 63.1682C510.484 61.3753 506.92 60.4789 502.853 60.4789C498.612 60.4789 494.851 61.4628 491.571 63.4306C488.335 65.3547 485.799 67.9566 483.962 71.2364C482.126 74.4723 481.185 78.0801 481.142 82.0595V98.5237C481.142 103.509 482.06 107.816 483.897 111.446C485.777 115.075 488.423 117.874 491.834 119.842C495.245 121.81 499.29 122.794 503.969 122.794C507.073 122.794 509.916 122.356 512.496 121.482C515.076 120.607 517.284 119.295 519.121 117.546C520.958 115.797 522.357 113.654 523.319 111.118L549.163 112.823C547.851 119.033 545.162 124.455 541.095 129.091C537.072 133.682 531.868 137.268 525.484 139.848C519.143 142.385 511.818 143.653 503.509 143.653Z" fill="black"/>
<path d="M454.326 69.6621L428.744 71.2364C428.307 69.0499 427.367 67.082 425.923 65.3328C424.48 63.5399 422.578 62.1187 420.217 61.0692C417.899 59.976 415.122 59.4293 411.886 59.4293C407.557 59.4293 403.906 60.3477 400.932 62.1843C397.958 63.9772 396.472 66.3824 396.472 69.3997C396.472 71.8048 397.434 73.8383 399.358 75.5C401.282 77.1617 404.583 78.4955 409.262 79.5013L427.498 83.1746C437.293 85.1861 444.596 88.4221 449.406 92.8826C454.217 97.343 456.622 103.203 456.622 110.462C456.622 117.065 454.676 122.859 450.784 127.844C446.936 132.83 441.644 136.722 434.91 139.52C428.219 142.275 420.501 143.653 411.755 143.653C398.417 143.653 387.791 140.876 379.876 135.322C372.005 129.725 367.391 122.116 366.036 112.495L393.52 111.052C394.351 115.119 396.362 118.224 399.554 120.367C402.747 122.466 406.835 123.515 411.821 123.515C416.718 123.515 420.654 122.575 423.628 120.695C426.645 118.771 428.176 116.3 428.219 113.282C428.176 110.746 427.104 108.669 425.005 107.051C422.906 105.389 419.67 104.121 415.297 103.246L397.849 99.77C388.01 97.8021 380.685 94.3912 375.875 89.5372C371.108 84.6832 368.725 78.4955 368.725 70.974C368.725 64.502 370.474 58.9264 373.973 54.2474C377.515 49.5683 382.478 45.9606 388.863 43.4243C395.291 40.8879 402.812 39.6198 411.427 39.6198C424.152 39.6198 434.167 42.3092 441.469 47.6879C448.816 53.0667 453.101 60.3914 454.326 69.6621Z" fill="black"/>
<path d="M308.702 143.587C302.274 143.587 296.545 142.472 291.516 140.242C286.487 137.968 282.508 134.623 279.578 130.206C276.692 125.745 275.249 120.192 275.249 113.545C275.249 107.947 276.277 103.246 278.332 99.442C280.387 95.6375 283.186 92.5765 286.728 90.2588C290.27 87.9411 294.293 86.1919 298.797 85.0112C303.345 83.8305 308.112 82.9997 313.097 82.5186C318.957 81.9064 323.68 81.3379 327.265 80.8132C330.851 80.2447 333.453 79.4138 335.071 78.3206C336.689 77.2273 337.498 75.6093 337.498 73.4666V73.073C337.498 68.9187 336.186 65.7046 333.562 63.4306C330.982 61.1567 327.309 60.0197 322.543 60.0197C317.514 60.0197 313.512 61.1348 310.539 63.365C307.565 65.5515 305.597 68.3065 304.635 71.6299L278.791 69.5309C280.103 63.4087 282.683 58.1174 286.531 53.657C290.379 49.1528 295.343 45.6982 301.421 43.2931C307.543 40.8442 314.628 39.6198 322.674 39.6198C328.271 39.6198 333.628 40.2757 338.744 41.5876C343.905 42.8995 348.474 44.9329 352.454 47.6879C356.477 50.4429 359.647 53.985 361.965 58.3142C364.283 62.5997 365.441 67.738 365.441 73.7289V141.685H338.941V127.713H338.154C336.536 130.862 334.371 133.639 331.66 136.044C328.949 138.405 325.691 140.264 321.887 141.619C318.082 142.931 313.687 143.587 308.702 143.587ZM316.705 124.302C320.815 124.302 324.445 123.493 327.593 121.875C330.742 120.214 333.213 117.983 335.006 115.185C336.798 112.386 337.695 109.216 337.695 105.674V94.9816C336.82 95.5501 335.618 96.0748 334.087 96.5559C332.6 96.9932 330.917 97.4086 329.036 97.8021C327.156 98.152 325.276 98.48 323.395 98.7861C321.515 99.0484 319.809 99.289 318.279 99.5076C314.999 99.9886 312.135 100.754 309.686 101.803C307.237 102.853 305.335 104.274 303.979 106.067C302.624 107.816 301.946 110.003 301.946 112.627C301.946 116.431 303.323 119.339 306.078 121.351C308.877 123.318 312.419 124.302 316.705 124.302Z" fill="black"/>
<path d="M175 141.685V7.34725H228.788C238.67 7.34725 246.914 8.8122 253.517 11.7421C260.12 14.672 265.083 18.7388 268.407 23.9427C271.73 29.1028 273.392 35.05 273.392 41.7844C273.392 47.032 272.342 51.6455 270.243 55.6249C268.144 59.5605 265.258 62.7965 261.585 65.3328C257.955 67.8254 253.801 69.5965 249.122 70.646V71.9579C254.238 72.1765 259.027 73.6196 263.487 76.2871C267.991 78.9546 271.643 82.6935 274.441 87.5038C277.24 92.2703 278.639 97.9552 278.639 104.558C278.639 111.686 276.868 118.049 273.326 123.646C269.828 129.2 264.646 133.595 257.78 136.831C250.915 140.067 242.453 141.685 232.395 141.685H175ZM203.402 118.464H226.557C234.472 118.464 240.245 116.956 243.874 113.938C247.504 110.877 249.319 106.81 249.319 101.738C249.319 98.0208 248.422 94.7411 246.629 91.8986C244.836 89.0562 242.278 86.826 238.955 85.208C235.675 83.59 231.761 82.781 227.213 82.781H203.402V118.464ZM203.402 63.5618H224.458C228.35 63.5618 231.805 62.884 234.822 61.5284C237.883 60.129 240.288 58.1612 242.038 55.6249C243.831 53.0885 244.727 50.0493 244.727 46.5072C244.727 41.6532 243 37.7394 239.545 34.7658C236.134 31.7922 231.28 30.3053 224.983 30.3053H203.402V63.5618Z" fill="black"/>
</svg>
