<svg width="256" height="256" viewBox="0 0 256 256" fill="none" xmlns="http://www.w3.org/2000/svg">
<path fill-rule="evenodd" clip-rule="evenodd" d="M193.76 29.4933L196.48 29.8346C203.669 30.8266 213.184 32.16 218.571 37.5573C222.987 41.9626 224.683 49.1306 225.696 55.5306L226.293 59.648C227.637 69.3546 227.989 82.0693 225.696 96.192C221.173 124.064 206.336 157.323 169.077 183.072C168.875 185.077 168.864 187.104 168.907 189.131L169.013 192.16C169.184 196.821 169.355 201.483 168.053 206.005C166.027 213.045 158.805 217.685 152.053 221.013L148.747 222.581L144.48 224.459C136.501 227.851 125.728 231.328 118.976 224.565C114.923 220.523 113.259 214.592 111.904 208.693L111.403 206.485C110.83 203.699 110.118 200.944 109.269 198.229C108.736 196.665 108.16 195.083 107.541 193.483C106.86 194.319 106.138 195.12 105.376 195.883C101.696 199.563 96.2027 202.133 91.68 203.936C86.7414 205.888 81.152 207.595 75.9787 209.003L73.3227 209.707L68.2347 210.976L63.6267 212.043L58.112 213.216L54.6667 213.888C52.9484 214.206 51.1785 214.101 49.5096 213.583C47.8408 213.065 46.3231 212.148 45.0874 210.913C43.8517 209.677 42.9352 208.159 42.4168 206.49C41.8985 204.821 41.7939 203.052 42.112 201.333L43.0294 196.736L44.672 189.291L45.9947 183.851L46.9974 180.011C48.4054 174.848 50.112 169.259 52.0747 164.331C53.8667 159.797 56.4374 154.304 60.1174 150.624L60.9707 149.803L60.288 149.525C58.4648 148.833 56.6184 148.203 54.752 147.637L51.7974 146.731C44.3947 144.491 36.48 142.08 31.5627 137.152C25.5894 131.189 27.6054 122.112 30.4854 114.56L31.6587 111.637L33.5467 107.371L35.1147 104.064C38.4427 97.3226 43.0827 90.1013 50.1227 88.0746C53.856 87.008 57.7387 86.944 61.6427 87.0506L63.9894 87.1253C67.04 87.232 70.08 87.3493 73.056 87.0613C98.8054 49.792 132.064 34.9546 159.936 30.432C171.117 28.5981 182.494 28.2824 193.76 29.4933ZM89.0987 164.693C87.4205 163.449 85.4139 162.726 83.3281 162.612C81.2423 162.498 79.1689 162.999 77.3654 164.053L76.192 164.843L75.2 165.728L73.8667 167.413C71.0934 171.424 69.5147 176.971 68.288 182.155L67.136 187.147L66.592 189.419L68.6294 188.928L73.088 187.904C79.2534 186.464 86.0907 184.597 90.2934 180.811C92.1207 178.984 93.223 176.557 93.3957 173.979C93.5683 171.401 92.7995 168.848 91.232 166.795L90.3574 165.792L90.1014 165.547L89.0987 164.693ZM165.717 90.304C163.737 88.3226 161.385 86.7507 158.797 85.6781C156.209 84.6056 153.435 84.0533 150.633 84.0528C147.832 84.0523 145.057 84.6036 142.469 85.6753C139.88 86.7469 137.528 88.318 135.547 90.2986C133.565 92.2793 131.993 94.6309 130.921 97.219C129.848 99.8072 129.296 102.581 129.295 105.383C129.295 108.184 129.846 110.959 130.918 113.547C131.99 116.136 133.561 118.488 135.541 120.469C139.542 124.471 144.967 126.72 150.626 126.721C156.284 126.722 161.71 124.475 165.712 120.475C169.714 116.474 171.962 111.049 171.963 105.39C171.964 99.7323 169.718 94.3056 165.717 90.304Z" fill="url(#paint0_linear_206_43)"/>
<defs>
<linearGradient id="paint0_linear_206_43" x1="127.528" y1="28.7724" x2="127.528" y2="228.432" gradientUnits="userSpaceOnUse">
<stop stop-color="#FF8D22"/>
<stop offset="1" stop-color="#FF0000"/>
</linearGradient>
</defs>
</svg>
